# xmcd
#
# Track frame offsets:
#	182
#	14932
#	29107
#	70805
#	104577
#	128602
#
# Disc length: 2127 seconds
# Revision: 0
# Processed by: cddbd v1.5.2PL0 Copyright (c) Steve Scherf et al.
# Submitted via: dBpowerAMP V12.0
#
DISCID=57084d06
DTITLE=North And South - Tarantino’s New Star [Single Part 2]
DYEAR=1997
DGENRE=Dance
TTITLE0=Tarantino’s New Star [Radio Edit]
TTITLE1=Tarantino’s New Star [Surfer Paradise — The Trip]
TTITLE2=Tarantino’s New Star [Kris ‘N’ D.A.V.E Dub]
TTITLE3=Tarantino’s New Star [Matt Darey Mix]
TTITLE4=Tarantino’s New Star [Porn Kings X-Posed Club Mix]
TTITLE5=Tarantino’s New Star [Storm Mix]
EXTD=
EXTT0=
EXTT1=
EXTT2=
EXTT3=
EXTT4=
EXTT5=
PLAYORDER=
